<?xml version="1.0" encoding="utf-8"?>
<svg version="1.1" id="Layer_1"
xmlns="http://www.w3.org/2000/svg"
xmlns:xlink="http://www.w3.org/1999/xlink"
width="900px" height="536px"
xml:space="preserve">
<g id="PathID_7" transform="matrix(2.47003, 2.47003, -2.47003, 2.47003, 371.55, -33)" opacity="1">
<path style="fill:#F7489F;fill-opacity:1" d="M21.95 13.75Q21.7 13.8 21.4 13.55Q18.6 10.3 10.45 11.3L11.9 10.7Q21.1 6.95 26.75 6.45Q26.55 5.15 25.1 6.05Q23.7 6.7 24.2 4.7L31.15 4.1Q34.1 3.8 36.7 2.9Q36.9 4.4 38.9 5.15Q41.2 6.05 41.6 6.45Q42.65 6.35 41.6 5.15Q40.1 3.8 41 2.3Q42.5 2.8 49 1.25Q55.05 -0.2 57.7 0.85Q56.75 2.3 57.6 2.55Q57.4 3.2 56.45 3.2L54.3 3.2Q54 4.25 55.75 4.25L58.45 4.25Q59.35 3.8 59.9 2.55L61.1 0.3Q62.1 0.95 62.3 1.95Q62.6 2.9 61.7 3.7L65.1 3.8Q65.8 2.3 63.95 2.05Q62 1.95 62.75 0.35L65.8 0.65L67.45 0.55Q66.85 2.05 69.5 3.2Q72.9 4.55 75.15 2.8Q74.9 2.3 73.6 2.05Q72.65 1.95 71.85 0.85L70.85 2.05Q70.25 2.6 69.4 2.55Q70.25 0.85 70.25 0L76.05 0.35L76.05 2.8L79.65 3.1Q81.6 2.9 81 0.65Q84.5 1.95 79.05 5.45Q80.6 6.35 82.45 4.85Q84.7 2.9 86.65 3.5Q85.3 5.55 86.65 5.85L90.55 6.35Q86.75 8.4 83.65 7Q80.75 5.85 78.95 7.2Q80.6 9.25 85.7 8.95Q90.3 8.9 92.3 10.7L92.8 11.3L89.7 10.9L88.1 10.7Q87.05 10.6 86.15 10.1L86.3 10.7Q86.75 11.9 89 12.05L93.6 12.2Q96.2 11.9 97.8 12.8Q99.35 13.55 95.15 13.1L86.45 12.8Q81 12.5 78.65 11.3L79.35 10.7L80.45 10.6Q78.8 9.45 78.2 10.7L78.05 11Q77 14.05 76.05 14.45L62 13.55Q61.5 15.05 64.05 15.3Q66.35 15.5 66 17.05Q66.55 17.05 68 15.6Q69.2 14.45 70.95 15.05Q72.4 15.6 70.4 15.8Q67.55 15.9 67.55 16.5Q68 17.65 70.85 17Q73.3 16.4 74.1 17.65Q73.6 14.9 79.35 16.4Q86 18.2 87.55 16.75Q87.55 16.4 85.7 15.6Q84.4 15.2 85.3 13.35L88.7 14.15Q90.8 14.6 92.75 15.5Q92 16.75 90.8 16.1Q89 15.05 88.55 15.3Q88.7 17.25 89 17.85Q89.7 19 91.65 18.8Q89.6 17.55 90.85 17.05L94.2 16.5Q93.3 17.85 93.3 18.8L100.6 19.1L106.55 19.6Q104.8 22.85 97.1 21.35Q88.7 19.8 87.25 20.95Q88.25 22.1 92 22.25L98 22.55Q95.45 23.6 97.5 24L102.05 24.5Q102.05 23.9 101.5 23.7L100.35 23.4Q100.6 22.7 101.4 22.85Q102.05 22.85 102.05 23.6L110.35 24Q115.65 24.2 117.8 25.35L122.8 25.65L125.35 25.65Q127.05 25.65 126.85 26.75L116.9 26.15Q111.85 24.85 103.75 24.5L103.15 24.85Q103.25 25.35 103.55 25.35Q94.75 26.45 91.15 24.55Q93.4 26.15 94.75 27.6Q96.2 28.5 101.8 28.55Q100.05 30.05 99.15 30.35L95.05 30.65Q96.8 32.3 99.65 31.2L104.15 31.1Q104 30.5 103.25 30.35L101.7 30.2Q102.65 28.55 106.1 28.55L111.75 28.25Q111.75 27.6 110.45 27.4L108.65 27.3L114.95 27.1Q122 28.5 124.25 28.2Q122.8 29.95 117.5 28.85Q111.55 28 109.2 29.05Q110.9 29.95 112.9 30.5Q114.05 30.8 114.8 31.9Q114.65 33.05 112.9 32Q111.25 31.1 111.55 33.15Q110.65 33.15 109.2 32.45Q108.05 31.9 106.55 32.15Q106.55 30.35 107.15 31.15Q108.65 30.05 109.85 31.5Q108.9 32 107.25 30.95L107.15 31.15Q106.4 30.55 105.7 30.95Q102.3 33.15 99.95 32.6Q102.3 34.25 107.25 34.55Q112.6 34.9 114.65 36Q117.3 35.1 111.25 37.45Q110.65 39.1 112.35 39.2L115.25 39.2Q116.9 39.4 115.85 38.05Q115.05 36.65 116.25 36.85Q117.8 36.65 117.6 39.1Q117.6 41 119.35 39.5Q120.7 40.25 119.05 41.55Q117.5 43 115.85 42.65L116.15 40.25Q112.1 41 110.1 42.35Q108.4 41.55 108.65 39.7L105.4 40.1Q103.55 40.7 101.8 40.1L102.95 41.15Q103.55 41.75 102.65 41.85L105.7 42.35Q108.15 42.95 107.45 45.55Q109.2 43.3 112.9 45.75Q116.45 47.8 118.2 45.25Q118.75 46.4 123.65 46.4Q127.95 46.4 127.15 49.25Q126.2 49.35 125.7 48.5Q125.35 47.5 124.75 47.5Q122.8 47.2 122.2 48.8Q123.4 49.55 125.05 49.85Q127.05 50.3 128.65 51.05Q128.25 52.2 126.3 51.6L123.65 50.6L125.1 52.5Q126 53.65 127.75 53.35Q127.45 53.95 126.8 54.15L125.1 54.15Q125.6 55.6 126.85 55.4Q129 55.3 130 56.1Q128.25 57.05 123.4 55.7Q118.45 54.2 116.75 55.1Q117.5 53.55 117.5 53.05Q117.5 52.7 115.25 52.7Q113.6 52.1 115.25 51.8Q116.9 51.6 117.8 52.1Q117.3 50.75 114.65 50.75Q111.85 51.05 112.05 52.5Q112.05 53.05 112.9 53.25L114.35 53.35Q115.05 54.2 111.25 54.5Q107.45 54.8 106.1 53.65Q106.25 56.1 110.9 56.65Q115.25 57.25 117.6 56.1Q119.35 57.65 116.45 57.65L111.75 57.55L113.9 59Q115.25 59.9 116.45 60.2Q114.05 61.05 111.85 59.6Q108.7 57.55 107.55 57.25Q110.15 60 107.45 59.6Q104.45 59.3 104.15 56.95Q102.55 57.55 101.5 59.3Q101.8 56.75 98.6 56.45Q95.15 56.4 95.15 55.6Q93.95 57.35 89.4 57.05L81.9 55.6Q81.2 55.7 81.5 56.4Q81.9 57.55 81.6 58.1L77.5 57.85Q79.65 56.1 75.15 55.1Q75.15 55.7 75.75 55.9L76.9 56.15Q56.45 56.65 37.65 58.9L37.5 58.7Q36.85 59.1 35.9 59Q24.75 59.3 14.15 60.55Q18.45 58.25 23.4 58.7Q20.1 57.25 15.25 58.1L6.75 58.55Q6.75 57.55 9 57.85Q10.95 58.1 10.35 56.15Q11.05 57.85 14.1 56.65Q18 55 19.45 55.1Q18.15 54.8 10.65 55.1Q4.05 55.1 0.4 53.95Q0.4 53.55 9.75 52.1Q9.2 50.6 7.05 51.05Q4.7 51.8 4.05 51.6Q2.95 50.75 7.5 50.05Q11.85 49.05 12.2 51.3Q11.9 48.8 16.5 48.2L9.2 48.5L0 48.8Q2.95 47.6 8.1 46.6L16.8 44.95Q14.1 43.8 12.4 44.6L6.75 44.4L5.3 44.9Q5.3 44.65 6.05 43.5Q11.05 42.95 20.4 41Q18.75 39.7 14.95 40.25L8.7 41.15Q10.65 38.8 14.4 38.9L21.3 38.6Q21.1 37.25 18.55 38.05Q16.7 38.55 18.15 36.65L13.1 37.55Q11.05 38.05 8.1 36.95Q8.3 37.55 9 37.75L10.65 37.95Q9.9 39.2 8.6 38.55Q6.65 37.45 5.8 37.55L8.9 35.1Q12.2 33.05 14.1 34.85Q14.15 33.15 19.65 31.7Q24.6 30.35 26.85 30.65Q26.45 28.75 24.6 29.05L21.1 29.45Q22.85 28.85 21.9 27.9Q21.1 26.8 22.85 26.25Q22.85 25.65 22.2 25.45L20.5 25.15L21.3 24.85Q23.9 24.5 25.35 25.45Q25.65 27.1 23.7 27.1Q23.9 28.5 24.9 27.9Q26.45 27.05 27.05 27.3Q25.65 24.8 29.1 24.8Q33.4 24.55 33.95 23.6L29.7 23.1Q27.35 22.85 25.5 24.55Q22.75 22.55 17.85 23.6Q12.5 25.15 9.6 25.35Q10.2 23.4 13.1 24Q12.8 22.4 11.65 22.4L9 22.85Q8 22.55 10.05 21.85Q11.35 21.35 8.3 21.05Q10.95 19.6 14.1 19.3Q17.1 19 19.15 20.15Q19.45 19 18.55 18.7L16.7 18.45Q17.3 16.4 19.45 17Q20.5 17.35 22.55 18.7Q20.25 16.4 25.5 15.6Q30.55 14.9 33.45 16.1Q33.4 14.15 35.25 14.3Q37.8 14.3 38.9 12.2L30.85 13.25Q24.8 14.15 23.65 15.5Q23.2 14.35 21.8 13.9Q22 13.85 21.95 13.75M20.65 79.45Q19.6 79.35 19.35 77.85Q18.85 74.8 14.15 75.7Q14.1 76.7 16.5 76.55Q18.85 76.4 18.15 78.35Q17.3 77.45 14.95 77.25L10.65 77Q12.15 75.4 15.55 74.9L21.7 74.3Q19.75 73.15 14.75 72.95L6.75 72.65Q8.9 72.85 15.6 71.1Q21.1 69.65 23.4 71.2Q21.9 68.75 26.85 68.15L35.45 66.8Q32.3 66.35 25.2 66.8L15.55 66.5Q17.1 65.35 22.2 64.85Q27.6 64.55 31.25 65.75Q24.8 63.05 25.2 62.8L32.3 61.65Q32.25 60.55 27.35 61.05L25.35 61.15L27.45 60.55Q29.4 59.7 32.6 59.7Q34.6 59.7 35.9 59L37.65 58.9L38.65 60.2Q39.25 61.05 40.7 60.55Q38.9 59 41.8 59.1Q46.4 59.3 47.55 58.55Q46.95 59.3 45 60L46.75 60.85Q47 61.05 47.35 61.05Q48.35 61.8 49.85 61.95Q49.7 61.35 49 61.15L47.35 61.05Q50.45 59.1 56 58.55L67.55 58.1Q69.1 58.85 66.55 58.85L62.6 58.55Q63.05 60.3 64.9 61.15Q73.85 60.3 79.65 60.8Q85 61.05 90 62.45L94.55 63.9L94.45 66.35L103.55 66.8Q101.5 68 99.35 68Q94.75 67.8 94.25 68Q95.45 69.35 97.7 69.35Q100.05 69.35 100.9 70.05Q99.65 70.9 95.75 69.95Q91.45 68.9 89.3 69.35Q89.4 68.75 90.3 68.75L91.75 68.75Q91.75 68 90.55 67.8L88.55 67.7Q88.1 68.75 87.65 69.05Q86.75 69.65 84.4 69.05Q84.5 68.3 86.15 68.15Q87.35 68 86.15 66.65L83.05 68.6Q81.3 69.45 80.25 67.1Q79.05 68 68.6 68.6Q57.6 69.35 54.3 71.4L60.9 72Q66.55 72.3 67.55 70.55Q73.85 72.3 87.85 73.15Q104.6 74.3 113 75.8Q115.85 75.4 116.5 76.4Q117.3 77.25 113.8 76.7L103.15 76.4Q96.2 76.1 93.1 74.6Q90.8 75.7 89.3 75.7Q87.35 75.7 85.7 74.25Q84.8 74.3 85.1 75.1Q85.6 76 84.7 76.55Q84.4 75.8 81.5 75.5Q78.95 75.2 79.05 73.75Q78.05 75.8 77.2 75.2Q75.45 73.85 73.2 74.25Q73.3 74.9 74.6 75.1L76.4 75.2Q74.6 76.25 72.35 76.25Q68.5 76.1 67.25 76.25Q71.75 75.2 68.15 74.8Q64.6 74.3 63.95 76.1Q63.35 75.8 63.65 75.5L64.05 74.55Q59.05 76 56.5 76.25Q51.55 76.85 49 74.3Q48.2 76.7 43.85 76.55L34.85 76Q34.7 77 35.15 77.25L36.4 77.75Q36.15 78.65 33.1 77Q30.35 75.7 30.35 79Q30.05 77.85 26.25 76.85Q24.8 76.4 28.9 76.4Q27.6 74.6 25.1 75.8Q22.55 77.45 21.4 77.75Q21.3 78.65 23.4 78.65Q25.35 78.65 24.6 80.4Q24.6 79.5 21.95 79.3Q21 79.3 20.65 79.45M7.8 16.2Q7.65 16.75 7.65 17.85L4.4 17.65L4.4 16.5L8.6 15.3L8.9 15.2Q14.1 14.05 14.65 11.5Q16.7 11.3 18.45 12.5Q20.1 13.65 21.4 13.55Q21.65 13.7 21.8 13.9Q22.1 15.65 19.15 15.9Q16.1 16.1 15.9 17.55Q15.55 17 16.2 15.6Q17.1 14.05 17.1 13.35Q17.1 12.8 16.5 12.65L15.35 12.5Q14.65 12.95 14.95 14.3Q15.25 15.6 14.4 16.5Q14.1 14.45 11.55 16.1Q9.2 17.55 8.6 15.3Q8 15.5 7.8 16.2M122.6 41.45Q122.8 39.8 125.35 40Q127.45 40 128.35 41Q128.25 43.2 126.3 42.35Q123.65 41.15 122.6 41.45M137.2 43.5Q131.95 42.7 130 41.85L139.15 42.45Q142.4 44.3 137.2 43.5M103.75 10.7Q101.5 11.5 101.1 11.9Q101.1 11.3 101.4 10.7L101.7 10.35Q102.3 9.45 102.05 8.6Q103.15 9.55 105.4 9.55Q106.25 10.05 104.15 10.6L103.75 10.7M110.1 15.6Q111.25 17.25 114.35 18.45Q118.1 19.9 122.3 19.9Q121.4 21.95 118.7 21.05Q115.05 20.15 113.9 20.95Q114.05 21.95 116.75 21.95Q119.35 22.1 119.65 23Q118.4 24 115.25 23Q111.55 21.95 109.6 22.4Q109.6 20.65 111.55 20.65L114.8 20.15Q114.65 19 112.4 19L109 19Q110.1 18.45 109.6 17.05Q109.2 15.8 110.1 15.6M105.8 16.4Q105.95 17.05 105.5 17.65Q104.9 18.2 104.9 18.7L102.55 17.95Q101.5 17.35 101.7 16.1L105.8 16.4M100.05 15.05Q100.55 17.55 98.9 18.15Q97.7 18.5 95.05 18.15Q96.05 15.6 95.15 14.9Q95.65 13.75 97.1 14.45Q98.9 15.6 100.05 15.05M98 81.45Q102.55 80.95 102.65 81.85L74.95 82.9L47.85 81.75Q46.45 81.25 46.1 82.4L45.2 84.05Q44.15 83.9 42.2 82.9Q40.6 81.85 38.65 82.1Q40.9 84.05 38.1 83.5L32.8 82.4Q33.8 81.85 35.85 81.55L39.55 81.25Q39.15 80.3 36.35 80.3L32.25 79.9Q38.9 78.15 48.8 77.85L65.5 77.85Q65.7 79 64.85 79.3L62.9 79.3L78.65 80.65Q89.7 81.25 94.55 79.6Q93.7 81.85 98 81.45M90.5 93.95L94.45 94.55Q95.45 95 94.55 95.3L92.75 95.3L92.8 96.3L93.1 97.15Q93.4 97.75 92.5 98.75Q91.75 98.25 90.8 96.3L90.55 96Q90 95 87.65 95Q88.7 93.55 90.5 93.95M103.85 89.35Q104.7 89.95 106.55 90.45Q110.75 90.5 113.8 91.6Q112.9 92.45 108.7 91.3Q107.5 90.95 106.55 90.45Q105.15 90 103.5 89.95Q103.15 91.15 102.65 91.3L98.75 91.4Q97.1 90.8 98.75 90.7L101.2 90.8Q101.2 89.85 99.35 89.85L96.35 89.65Q94.25 89.95 94.55 92.95Q84.15 91 70.4 92.4Q73.2 90.45 79.05 90.8Q86.45 91.3 87.95 90.8Q85.4 89.55 80.15 89.85Q74.9 90.2 72.35 89.05Q69.4 92.45 61.8 92.75Q51.95 92.4 46.4 92.45Q50.4 94.4 62 93.65Q72.9 92.95 77.6 96L72.05 95.9L62.9 95.1Q61.8 95.4 62 96.3Q61.8 96.8 62.1 97.15Q62.75 98.8 61.7 99.3Q60.9 99.1 60.9 97.95L61.1 96.3L61.1 95.9Q60.8 95.9 60.5 96.3L59.9 97.75Q59.65 98.75 58.45 97.35Q58.2 99.05 60.05 99.1Q58.85 100.5 57.3 98.75Q55.35 96.5 54.5 96.3Q53.3 96.5 54.5 97.35L55.95 99.05L46.95 99.3L37.6 97.75Q37.8 97.35 39.15 96.8Q39.55 96.5 38.9 96.3L37.8 96.2Q37.85 95.4 39.15 95.4L41.2 95.4L35.25 94.25L28.8 93.95Q29.1 95 31.45 95L35.25 95.1Q36.7 96.2 33.8 95.9Q30.55 95.4 30.3 96.3L30.3 96.5Q31.15 97.35 33.8 97.75L37.6 98.55Q36.9 99.9 33.7 98.75Q30.3 97.45 29.2 99.05Q28.05 98.8 28.6 97.35Q28.6 97.05 29.2 96.3L29.5 95.7L27.15 96L24.5 96.2L24.5 96.3Q24.5 97.05 26.45 97.05Q28.5 97.05 27.6 98.8L21.9 98.55L23.35 97.05L23.7 96.3Q24 95.6 23.7 94.4L13 94.55Q7.05 94.4 2.25 93.25Q5.5 91.7 11.85 92L23.05 92.75Q22.75 91.6 20.25 91.6L16.5 91.4Q17.1 89.95 16.2 89.35Q15.05 88.4 15.05 88.1Q3.55 85.85 21.7 86.45Q42.65 87.3 25.1 87.9L15.85 87.3Q18.45 90.2 24.2 89.25Q30.55 88.2 33.2 89.95Q34.7 89.95 33.2 88.75Q31.8 87.6 33.4 87.5Q34.7 87.3 36.35 89Q37.5 89.95 38.95 88.75Q38.4 88.75 37.2 87.9Q35.85 87.05 34.25 86.75Q37.8 84.8 42.8 85.35L48.2 86.3L47.65 85.85Q47.85 85.25 50.45 84.8Q57.95 83.9 56.75 86.45Q57 85.95 58.85 85.85Q60.5 85.65 60.05 84.2Q66.95 86.15 86.3 87.2Q96.3 87.8 103.5 89.95Q103.75 89.75 103.85 89.35M143.45 53.55L139.45 51.6Q138.4 51.05 136.35 48.8Q138.7 48.65 140.95 49.55L144.4 51.05Q143.55 52.4 143.45 53.55M144.9 58.55Q143.55 57.55 142.1 57.05Q140.15 56.4 141.5 58.4Q140.75 59.6 138.85 58.25Q136.6 56.65 135.1 57.25Q133.2 56.15 136.6 56.4Q140.05 56.65 138.4 55.7Q139.15 54.8 142.3 55.7Q145.5 56.45 144.9 58.55M6.15 12.8Q8.4 11.3 9.75 10.7Q11.65 9.55 10.35 10.7L8.1 12.35Q5 14.75 2.1 14.15Q3.15 12.35 6.15 12.8M5.3 26.8L4.4 27.6L4.4 26.75L5.3 26.8M20.25 84.2Q21.4 82.35 26.75 81.85Q32.25 81.45 31.8 84.2L27.9 83.8Q25.35 82.9 24.3 82.9Q27.15 84.65 25.1 84.35L20.25 84.2M73.2 101.65Q70.95 102.8 66.05 102.35L59.05 101.65Q60.9 100.55 65.7 101.05L73.2 101.65M53.1 103.7L49 103.4L49.6 102.5Q49.7 101.95 49 101.75Q50.45 100.25 54.2 100.5Q54.2 101.15 53.6 102.05Q53.1 102.95 53.1 103.7M34.1 101.75L40.05 101.35Q36.4 102.95 40.35 102.5L45.8 101.65Q44.9 103.7 38.95 104L29.1 103.1L34.1 101.75M21.6 103.4Q21.95 101.75 24 101.95L27.35 102.95Q27.45 105.15 25.1 104.6L21.6 103.4M4.05 104Q6.05 100.5 15.85 103.1Q14.45 103.4 10.2 103.1Q6.15 102.95 4.05 104" />
</g>
</svg>
